ffmpeg started on 2025-07-16 at 17:17:38
Report written to "D:\Convert\FFMetrics\reports\ssim_report-6.txt"
Log level: 32
Command line:
ffmpeg -hide_banner -nostdin -i "G:\\\xc0\xed\xe8\xec\xe5\\Shiza\\\xcb\xe5\xe3\xe5\xed\xe4\xe0 \xee \xc3\xf0\xe0\xed\xea\xf0\xe5\xf1\xf2\xe5\\[SHIZA Project] Grancrest Senki TV [18] [nDrOiDze & Lizaveta]_HEVC.mkv" -i "G:\\\xc0\xed\xe8\xec\xe5\\Shiza\\\xcb\xe5\xe3\xe5\xed\xe4\xe0 \xee \xc3\xf0\xe0\xed\xea\xf0\xe5\xf1\xf2\xe5\\[SHIZA Project] Grancrest Senki TV [18] [nDrOiDze & Lizaveta].mkv" -lavfi "[0:v]settb=AVTB,setpts=PTS-STARTPTS,format=pix_fmts=yuv420p10,fps=24000/1001,scale=1280:720:flags=bicubic[main];[1:v]settb=AVTB,setpts=PTS-STARTPTS,format=pix_fmts=yuv420p,fps=24000/1001,scale=1280:720:flags=bicubic[ref];[main][ref]ssim=eof_action=endall:stats_file='D\\:/Convert/FFMetrics/logs/ssim_logfile-6.txt'" -f null -
Input #0, matroska,webm, from 'G:\Аниме\Shiza\Легенда о Гранкресте\[SHIZA Project] Grancrest Senki TV [18] [nDrOiDze & Lizaveta]_HEVC.mkv':
  Metadata:
    ENCODER         : Lavf61.7.100
  Duration: 00:23:41.01, start: -0.021000, bitrate: 643 kb/s
  Stream #0:0(jpn): Video: hevc (Main 10), yuv420p10le(tv, bt709, progressive), 1280x720 [SAR 1:1 DAR 16:9], 23.81 fps, 23.81 tbr, 1k tbn (default)
      Metadata:
        title           : [SHIZA Project] Grancrest Senki TV [WEBRip]
        ENCODER         : Lavc61.19.100 libx265
        BPS             : 443879
        DURATION        : 00:23:39.978000000
        NUMBER_OF_FRAMES: 34046
        NUMBER_OF_BYTES : 78787472
        _STATISTICS_WRITING_APP: mkvpropedit v66.0.0 ('Josie') 64-bit
        _STATISTICS_WRITING_DATE_UTC: 2025-07-16 10:50:15
        _STATISTICS_TAGS: BPS DURATION NUMBER_OF_FRAMES NUMBER_OF_BYTES
  Stream #0:1(rus): Audio: aac (LC), 48000 Hz, stereo, fltp (default)
      Metadata:
        title           : nDrOiDze & Lizaveta
        ENCODER         : Lavc61.19.100 aac
        BPS             : 195457
        DURATION        : 00:23:40.991000000
        NUMBER_OF_FRAMES: 66610
        NUMBER_OF_BYTES : 34717867
        _STATISTICS_WRITING_APP: mkvpropedit v66.0.0 ('Josie') 64-bit
        _STATISTICS_WRITING_DATE_UTC: 2025-07-16 10:50:15
        _STATISTICS_TAGS: BPS DURATION NUMBER_OF_FRAMES NUMBER_OF_BYTES
Input #1, matroska,webm, from 'G:\Аниме\Shiza\Легенда о Гранкресте\[SHIZA Project] Grancrest Senki TV [18] [nDrOiDze & Lizaveta].mkv':
  Metadata:
    encoder         : libebml v1.3.4 + libmatroska v1.4.5
    creation_time   : 2018-05-17T20:57:22.000000Z
  Duration: 00:23:40.99, start: 0.000000, bitrate: 1970 kb/s
  Stream #1:0(jpn): Video: h264 (High), yuv420p(progressive), 1280x720 [SAR 1:1 DAR 16:9], 23.81 fps, 23.81 tbr, 1k tbn (default)
      Metadata:
        title           : [SHIZA Project] Grancrest Senki TV [WEBRip]
        BPS             : 1772390
        BPS-eng         : 1772390
        DURATION        : 00:23:39.962000000
        DURATION-eng    : 00:23:39.962000000
        NUMBER_OF_FRAMES: 34046
        NUMBER_OF_FRAMES-eng: 34046
        NUMBER_OF_BYTES : 314590856
        NUMBER_OF_BYTES-eng: 314590856
        _STATISTICS_WRITING_APP: mkvmerge v10.0.0 ('To Drown In You') 64bit
        _STATISTICS_WRITING_APP-eng: mkvmerge v10.0.0 ('To Drown In You') 64bit
        _STATISTICS_WRITING_DATE_UTC: 2018-05-17 20:57:22
        _STATISTICS_WRITING_DATE_UTC-eng: 2018-05-17 20:57:22
        _STATISTICS_TAGS: BPS DURATION NUMBER_OF_FRAMES NUMBER_OF_BYTES
        _STATISTICS_TAGS-eng: BPS DURATION NUMBER_OF_FRAMES NUMBER_OF_BYTES
  Stream #1:1(rus): Audio: aac (LC), 48000 Hz, stereo, fltp (default)
      Metadata:
        title           : nDrOiDze & Lizaveta
        BPS             : 195044
        BPS-eng         : 195044
        DURATION        : 00:23:40.992000000
        DURATION-eng    : 00:23:40.992000000
        NUMBER_OF_FRAMES: 66609
        NUMBER_OF_FRAMES-eng: 66609
        NUMBER_OF_BYTES : 34644523
        NUMBER_OF_BYTES-eng: 34644523
        _STATISTICS_WRITING_APP: mkvmerge v10.0.0 ('To Drown In You') 64bit
        _STATISTICS_WRITING_APP-eng: mkvmerge v10.0.0 ('To Drown In You') 64bit
        _STATISTICS_WRITING_DATE_UTC: 2018-05-17 20:57:22
        _STATISTICS_WRITING_DATE_UTC-eng: 2018-05-17 20:57:22
        _STATISTICS_TAGS: BPS DURATION NUMBER_OF_FRAMES NUMBER_OF_BYTES
        _STATISTICS_TAGS-eng: BPS DURATION NUMBER_OF_FRAMES NUMBER_OF_BYTES
  Stream #1:2: Attachment: ttf
      Metadata:
        filename        : OpenSans-Semibold.ttf
        mimetype        : application/x-truetype-font
Stream mapping:
  Stream #0:0 (hevc) -> settb:default
  Stream #1:0 (h264) -> settb:default
  ssim:default -> Stream #0:0 (wrapped_avframe)
  Stream #0:1 -> #0:1 (aac (native) -> pcm_s16le (native))
[swscaler @ 000001a0bdf217c0] No accelerated colorspace conversion found from yuv420p to bgr48le.
[swscaler @ 000001a0be0c0640] No accelerated colorspace conversion found from yuv420p to bgr48le.
[swscaler @ 000001a0be1dc100] No accelerated colorspace conversion found from yuv420p to bgr48le.
[swscaler @ 000001a0be3a8340] No accelerated colorspace conversion found from yuv420p to bgr48le.
[swscaler @ 000001a0be44fec0] No accelerated colorspace conversion found from yuv420p to bgr48le.
[swscaler @ 000001a0be5821c0] No accelerated colorspace conversion found from yuv420p to bgr48le.
[swscaler @ 000001a0be6d9040] No accelerated colorspace conversion found from yuv420p to bgr48le.
[swscaler @ 000001a0be81b7c0] No accelerated colorspace conversion found from yuv420p to bgr48le.
[swscaler @ 000001a0be9b5b00] No accelerated colorspace conversion found from yuv420p to bgr48le.
[swscaler @ 000001a0bea98680] No accelerated colorspace conversion found from yuv420p to bgr48le.
[swscaler @ 000001a0beaf4040] No accelerated colorspace conversion found from yuv420p to bgr48le.
[swscaler @ 000001a0beb51040] No accelerated colorspace conversion found from yuv420p to bgr48le.
[swscaler @ 000001a0bebd2040] No accelerated colorspace conversion found from yuv420p to bgr48le.
[swscaler @ 000001a0bec2d040] No accelerated colorspace conversion found from yuv420p to bgr48le.
[swscaler @ 000001a0bec89040] No accelerated colorspace conversion found from yuv420p to bgr48le.
[swscaler @ 000001a0bed05c40] No accelerated colorspace conversion found from yuv420p to bgr48le.
Output #0, null, to 'pipe:':
  Metadata:
    encoder         : Lavf61.7.100
  Stream #0:0: Video: wrapped_avframe, yuv420p10le(tv, bt709, progressive), 1280x720 [SAR 1:1 DAR 16:9], q=2-31, 200 kb/s, 23.98 fps, 23.98 tbn
      Metadata:
        encoder         : Lavc61.19.100 wrapped_avframe
  Stream #0:1(rus): Audio: pcm_s16le, 48000 Hz, stereo, s16, 1536 kb/s (default)
      Metadata:
        title           : nDrOiDze & Lizaveta
        _STATISTICS_TAGS: BPS DURATION NUMBER_OF_FRAMES NUMBER_OF_BYTES
        BPS             : 195457
        DURATION        : 00:23:40.991000000
        NUMBER_OF_FRAMES: 66610
        NUMBER_OF_BYTES : 34717867
        _STATISTICS_WRITING_APP: mkvpropedit v66.0.0 ('Josie') 64-bit
        _STATISTICS_WRITING_DATE_UTC: 2025-07-16 10:50:15
        encoder         : Lavc61.19.100 pcm_s16le
frame=   85 fps=0.0 q=-0.0 size=N/A time=00:00:03.54 bitrate=N/A speed=6.77x    frame=  171 fps=166 q=-0.0 size=N/A time=00:00:07.13 bitrate=N/A speed=6.93x    frame=  274 fps=176 q=-0.0 size=N/A time=00:00:11.42 bitrate=N/A speed=7.35x    frame=  369 fps=179 q=-0.0 size=N/A time=00:00:15.39 bitrate=N/A speed=7.46x    frame=  464 fps=180 q=-0.0 size=N/A time=00:00:19.35 bitrate=N/A speed=7.49x    frame=  563 fps=181 q=-0.0 size=N/A time=00:00:23.48 bitrate=N/A speed=7.56x    frame=  667 fps=184 q=-0.0 size=N/A time=00:00:27.81 bitrate=N/A speed=7.69x    frame=  764 fps=185 q=-0.0 size=N/A time=00:00:31.86 bitrate=N/A speed=7.72x    frame=  858 fps=185 q=-0.0 size=N/A time=00:00:35.78 bitrate=N/A speed= 7.7x    frame=  960 fps=186 q=-0.0 size=N/A time=00:00:40.04 bitrate=N/A speed=7.77x    frame= 1059 fps=186 q=-0.0 size=N/A time=00:00:44.16 bitrate=N/A speed=7.78x    frame= 1155 fps=186 q=-0.0 size=N/A time=00:00:48.17 bitrate=N/A speed=7.77x    frame= 1244 fps=186 q=-0.0 size=N/A time=00:00:51.88 bitrate=N/A speed=7.74x    frame= 1349 fps=187 q=-0.0 size=N/A time=00:00:56.26 bitrate=N/A speed=7.78x    frame= 1445 fps=187 q=-0.0 size=N/A time=00:01:00.26 bitrate=N/A speed=7.79x    frame= 1542 fps=187 q=-0.0 size=N/A time=00:01:04.31 bitrate=N/A speed=7.79x    frame= 1641 fps=187 q=-0.0 size=N/A time=00:01:08.44 bitrate=N/A speed=7.81x    frame= 1739 fps=187 q=-0.0 size=N/A time=00:01:12.53 bitrate=N/A speed=7.81x    frame= 1839 fps=187 q=-0.0 size=N/A time=00:01:16.70 bitrate=N/A speed=7.82x    frame= 1934 fps=187 q=-0.0 size=N/A time=00:01:20.66 bitrate=N/A speed=7.82x    frame= 2027 fps=187 q=-0.0 size=N/A time=00:01:24.54 bitrate=N/A speed=7.81x    frame= 2124 fps=187 q=-0.0 size=N/A time=00:01:28.58 bitrate=N/A speed=7.81x    frame= 2222 fps=187 q=-0.0 size=N/A time=00:01:32.67 bitrate=N/A speed=7.81x    frame= 2311 fps=187 q=-0.0 size=N/A time=00:01:36.38 bitrate=N/A speed=7.79x    frame= 2410 fps=187 q=-0.0 size=N/A time=00:01:40.51 bitrate=N/A speed= 7.8x    frame= 2516 fps=188 q=-0.0 size=N/A time=00:01:44.93 bitrate=N/A speed=7.82x    frame= 2616 fps=188 q=-0.0 size=N/A time=00:01:49.10 bitrate=N/A speed=7.83x    frame= 2713 fps=188 q=-0.0 size=N/A time=00:01:53.15 bitrate=N/A speed=7.84x    frame= 2813 fps=188 q=-0.0 size=N/A time=00:01:57.32 bitrate=N/A speed=7.84x    frame= 2911 fps=188 q=-0.0 size=N/A time=00:02:01.41 bitrate=N/A speed=7.85x    frame= 3005 fps=188 q=-0.0 size=N/A time=00:02:05.33 bitrate=N/A speed=7.84x    frame= 3108 fps=188 q=-0.0 size=N/A time=00:02:09.62 bitrate=N/A speed=7.85x    frame= 3202 fps=188 q=-0.0 size=N/A time=00:02:13.55 bitrate=N/A speed=7.84x    frame= 3303 fps=188 q=-0.0 size=N/A time=00:02:17.76 bitrate=N/A speed=7.86x    frame= 3405 fps=189 q=-0.0 size=N/A time=00:02:22.01 bitrate=N/A speed=7.86x    frame= 3501 fps=189 q=-0.0 size=N/A time=00:02:26.02 bitrate=N/A speed=7.86x    frame= 3590 fps=188 q=-0.0 size=N/A time=00:02:29.73 bitrate=N/A speed=7.85x    frame= 3704 fps=189 q=-0.0 size=N/A time=00:02:34.48 bitrate=N/A speed=7.88x    frame= 3801 fps=189 q=-0.0 size=N/A time=00:02:38.53 bitrate=N/A speed=7.88x    frame= 3894 fps=189 q=-0.0 size=N/A time=00:02:42.41 bitrate=N/A speed=7.87x    frame= 3998 fps=189 q=-0.0 size=N/A time=00:02:46.74 bitrate=N/A speed=7.89x    frame= 4093 fps=189 q=-0.0 size=N/A time=00:02:50.71 bitrate=N/A speed=7.88x    frame= 4201 fps=189 q=-0.0 size=N/A time=00:02:55.21 bitrate=N/A speed= 7.9x    frame= 4297 fps=189 q=-0.0 size=N/A time=00:02:59.22 bitrate=N/A speed= 7.9x    frame= 4397 fps=189 q=-0.0 size=N/A time=00:03:03.39 bitrate=N/A speed= 7.9x    frame= 4490 fps=189 q=-0.0 size=N/A time=00:03:07.27 bitrate=N/A speed=7.89x    frame= 4591 fps=189 q=-0.0 size=N/A time=00:03:11.48 bitrate=N/A speed= 7.9x    frame= 4694 fps=190 q=-0.0 size=N/A time=00:03:15.77 bitrate=N/A speed=7.91x    frame= 4793 fps=190 q=-0.0 size=N/A time=00:03:19.90 bitrate=N/A speed=7.91x    frame= 4885 fps=189 q=-0.0 size=N/A time=00:03:23.74 bitrate=N/A speed= 7.9x    frame= 4989 fps=190 q=-0.0 size=N/A time=00:03:28.08 bitrate=N/A speed=7.91x    frame= 5090 fps=190 q=-0.0 size=N/A time=00:03:32.29 bitrate=N/A speed=7.92x    frame= 5185 fps=190 q=-0.0 size=N/A time=00:03:36.25 bitrate=N/A speed=7.91x    frame= 5286 fps=190 q=-0.0 size=N/A time=00:03:40.47 bitrate=N/A speed=7.92x    frame= 5386 fps=190 q=-0.0 size=N/A time=00:03:44.64 bitrate=N/A speed=7.92x    frame= 5484 fps=190 q=-0.0 size=N/A time=00:03:48.72 bitrate=N/A speed=7.92x    frame= 5574 fps=190 q=-0.0 size=N/A time=00:03:52.48 bitrate=N/A speed=7.91x    frame= 5681 fps=190 q=-0.0 size=N/A time=00:03:56.94 bitrate=N/A speed=7.92x    frame= 5775 fps=190 q=-0.0 size=N/A time=00:04:00.86 bitrate=N/A speed=7.92x    frame= 5873 fps=190 q=-0.0 size=N/A time=00:04:04.95 bitrate=N/A speed=7.92x    frame= 5971 fps=190 q=-0.0 size=N/A time=00:04:09.04 bitrate=N/A speed=7.92x    frame= 6072 fps=190 q=-0.0 size=N/A time=00:04:13.25 bitrate=N/A speed=7.92x    frame= 6170 fps=190 q=-0.0 size=N/A time=00:04:17.34 bitrate=N/A speed=7.92x    frame= 6267 fps=190 q=-0.0 size=N/A time=00:04:21.38 bitrate=N/A speed=7.92x    frame= 6365 fps=190 q=-0.0 size=N/A time=00:04:25.47 bitrate=N/A speed=7.92x    frame= 6465 fps=190 q=-0.0 size=N/A time=00:04:29.64 bitrate=N/A speed=7.92x    frame= 6563 fps=190 q=-0.0 size=N/A time=00:04:33.73 bitrate=N/A speed=7.92x    frame= 6664 fps=190 q=-0.0 size=N/A time=00:04:37.94 bitrate=N/A speed=7.93x    frame= 6766 fps=190 q=-0.0 size=N/A time=00:04:42.19 bitrate=N/A speed=7.93x    frame= 6859 fps=190 q=-0.0 size=N/A time=00:04:46.07 bitrate=N/A speed=7.92x    frame= 6963 fps=190 q=-0.0 size=N/A time=00:04:50.41 bitrate=N/A speed=7.93x    frame= 7065 fps=190 q=-0.0 size=N/A time=00:04:54.66 bitrate=N/A speed=7.94x    frame= 7164 fps=190 q=-0.0 size=N/A time=00:04:58.79 bitrate=N/A speed=7.94x    frame= 7265 fps=190 q=-0.0 size=N/A time=00:05:03.01 bitrate=N/A speed=7.94x    frame= 7361 fps=190 q=-0.0 size=N/A time=00:05:07.01 bitrate=N/A speed=7.94x    frame= 7458 fps=190 q=-0.0 size=N/A time=00:05:11.06 bitrate=N/A speed=7.94x    frame= 7553 fps=190 q=-0.0 size=N/A time=00:05:15.02 bitrate=N/A speed=7.93x    frame= 7654 fps=190 q=-0.0 size=N/A time=00:05:19.23 bitrate=N/A speed=7.94x    frame= 7752 fps=190 q=-0.0 size=N/A time=00:05:23.32 bitrate=N/A speed=7.94x    frame= 7847 fps=190 q=-0.0 size=N/A time=00:05:27.28 bitrate=N/A speed=7.93x    frame= 7927 fps=190 q=-0.0 size=N/A time=00:05:30.62 bitrate=N/A speed=7.92x    frame= 8024 fps=190 q=-0.0 size=N/A time=00:05:34.66 bitrate=N/A speed=7.91x    frame= 8119 fps=190 q=-0.0 size=N/A time=00:05:38.62 bitrate=N/A speed=7.91x    frame= 8216 fps=190 q=-0.0 size=N/A time=00:05:42.67 bitrate=N/A speed=7.91x    frame= 8311 fps=190 q=-0.0 size=N/A time=00:05:46.63 bitrate=N/A speed=7.91x    frame= 8401 fps=189 q=-0.0 size=N/A time=00:05:50.39 bitrate=N/A speed= 7.9x    frame= 8500 fps=189 q=-0.0 size=N/A time=00:05:54.52 bitrate=N/A speed= 7.9x    frame= 8594 fps=189 q=-0.0 size=N/A time=00:05:58.44 bitrate=N/A speed= 7.9x    frame= 8680 fps=189 q=-0.0 size=N/A time=00:06:02.02 bitrate=N/A speed=7.89x    frame= 8792 fps=189 q=-0.0 size=N/A time=00:06:06.69 bitrate=N/A speed= 7.9x    frame= 8892 fps=189 q=-0.0 size=N/A time=00:06:10.87 bitrate=N/A speed= 7.9x    frame= 8990 fps=189 q=-0.0 size=N/A time=00:06:14.95 bitrate=N/A speed= 7.9x    frame= 9084 fps=189 q=-0.0 size=N/A time=00:06:18.87 bitrate=N/A speed= 7.9x    frame= 9179 fps=189 q=-0.0 size=N/A time=00:06:22.84 bitrate=N/A speed= 7.9x    frame= 9274 fps=189 q=-0.0 size=N/A time=00:06:26.80 bitrate=N/A speed= 7.9x    frame= 9372 fps=189 q=-0.0 size=N/A time=00:06:30.89 bitrate=N/A speed= 7.9x    frame= 9469 fps=189 q=-0.0 size=N/A time=00:06:34.93 bitrate=N/A speed= 7.9x    frame= 9571 fps=189 q=-0.0 size=N/A time=00:06:39.19 bitrate=N/A speed= 7.9x    frame= 9672 fps=189 q=-0.0 size=N/A time=00:06:43.40 bitrate=N/A speed= 7.9x    frame= 9769 fps=189 q=-0.0 size=N/A time=00:06:47.44 bitrate=N/A speed= 7.9x    frame= 9876 fps=190 q=-0.0 size=N/A time=00:06:51.91 bitrate=N/A speed=7.91x    frame= 9976 fps=190 q=-0.0 size=N/A time=00:06:56.08 bitrate=N/A speed=7.91x    frame=10075 fps=190 q=-0.0 size=N/A time=00:07:00.21 bitrate=N/A speed=7.91x    frame=10175 fps=190 q=-0.0 size=N/A time=00:07:04.38 bitrate=N/A speed=7.91x    frame=10276 fps=190 q=-0.0 size=N/A time=00:07:08.59 bitrate=N/A speed=7.91x    frame=10376 fps=190 q=-0.0 size=N/A time=00:07:12.76 bitrate=N/A speed=7.92x    frame=10475 fps=190 q=-0.0 size=N/A time=00:07:16.89 bitrate=N/A speed=7.92x    frame=10574 fps=190 q=-0.0 size=N/A time=00:07:21.02 bitrate=N/A speed=7.92x    frame=10676 fps=190 q=-0.0 size=N/A time=00:07:25.27 bitrate=N/A speed=7.92x    frame=10778 fps=190 q=-0.0 size=N/A time=00:07:29.53 bitrate=N/A speed=7.92x    frame=10868 fps=190 q=-0.0 size=N/A time=00:07:33.28 bitrate=N/A speed=7.92x    frame=10970 fps=190 q=-0.0 size=N/A time=00:07:37.54 bitrate=N/A speed=7.92x    frame=11071 fps=190 q=-0.0 size=N/A time=00:07:41.75 bitrate=N/A speed=7.92x    frame=11173 fps=190 q=-0.0 size=N/A time=00:07:46.00 bitrate=N/A speed=7.93x    frame=11263 fps=190 q=-0.0 size=N/A time=00:07:49.76 bitrate=N/A speed=7.92x    frame=11368 fps=190 q=-0.0 size=N/A time=00:07:54.14 bitrate=N/A speed=7.93x    frame=11464 fps=190 q=-0.0 size=N/A time=00:07:58.14 bitrate=N/A speed=7.93x    frame=11566 fps=190 q=-0.0 size=N/A time=00:08:02.39 bitrate=N/A speed=7.93x    frame=11661 fps=190 q=-0.0 size=N/A time=00:08:06.36 bitrate=N/A speed=7.93x    frame=11760 fps=190 q=-0.0 size=N/A time=00:08:10.49 bitrate=N/A speed=7.93x    frame=11859 fps=190 q=-0.0 size=N/A time=00:08:14.61 bitrate=N/A speed=7.93x    frame=11954 fps=190 q=-0.0 size=N/A time=00:08:18.58 bitrate=N/A speed=7.93x    frame=12055 fps=190 q=-0.0 size=N/A time=00:08:22.79 bitrate=N/A speed=7.93x    frame=12147 fps=190 q=-0.0 size=N/A time=00:08:26.63 bitrate=N/A speed=7.92x    frame=12256 fps=190 q=-0.0 size=N/A time=00:08:31.17 bitrate=N/A speed=7.93x    frame=12354 fps=190 q=-0.0 size=N/A time=00:08:35.26 bitrate=N/A speed=7.93x    frame=12451 fps=190 q=-0.0 size=N/A time=00:08:39.31 bitrate=N/A speed=7.93x    frame=12557 fps=190 q=-0.0 size=N/A time=00:08:43.73 bitrate=N/A speed=7.93x    frame=12647 fps=190 q=-0.0 size=N/A time=00:08:47.48 bitrate=N/A speed=7.93x    frame=12756 fps=190 q=-0.0 size=N/A time=00:08:52.03 bitrate=N/A speed=7.93x    frame=12853 fps=190 q=-0.0 size=N/A time=00:08:56.07 bitrate=N/A speed=7.93x    frame=12942 fps=190 q=-0.0 size=N/A time=00:08:59.78 bitrate=N/A speed=7.93x    frame=13045 fps=190 q=-0.0 size=N/A time=00:09:04.08 bitrate=N/A speed=7.93x    frame=13140 fps=190 q=-0.0 size=N/A time=00:09:08.04 bitrate=N/A speed=7.93x    frame=13236 fps=190 q=-0.0 size=N/A time=00:09:12.05 bitrate=N/A speed=7.93x    frame=13325 fps=190 q=-0.0 size=N/A time=00:09:15.76 bitrate=N/A speed=7.92x    frame=13427 fps=190 q=-0.0 size=N/A time=00:09:20.01 bitrate=N/A speed=7.93x    frame=13526 fps=190 q=-0.0 size=N/A time=00:09:24.14 bitrate=N/A speed=7.93x    frame=13620 fps=190 q=-0.0 size=N/A time=00:09:28.06 bitrate=N/A speed=7.92x    frame=13718 fps=190 q=-0.0 size=N/A time=00:09:32.15 bitrate=N/A speed=7.92x    frame=13820 fps=190 q=-0.0 size=N/A time=00:09:36.40 bitrate=N/A speed=7.93x    frame=13915 fps=190 q=-0.0 size=N/A time=00:09:40.37 bitrate=N/A speed=7.92x    frame=14012 fps=190 q=-0.0 size=N/A time=00:09:44.41 bitrate=N/A speed=7.92x    frame=14102 fps=190 q=-0.0 size=N/A time=00:09:48.17 bitrate=N/A speed=7.92x    frame=14209 fps=190 q=-0.0 size=N/A time=00:09:52.63 bitrate=N/A speed=7.92x    frame=14309 fps=190 q=-0.0 size=N/A time=00:09:56.80 bitrate=N/A speed=7.92x    frame=14410 fps=190 q=-0.0 size=N/A time=00:10:01.01 bitrate=N/A speed=7.92x    frame=14508 fps=190 q=-0.0 size=N/A time=00:10:05.10 bitrate=N/A speed=7.93x    frame=14610 fps=190 q=-0.0 size=N/A time=00:10:09.35 bitrate=N/A speed=7.93x    frame=14703 fps=190 q=-0.0 size=N/A time=00:10:13.23 bitrate=N/A speed=7.93x    frame=14798 fps=190 q=-0.0 size=N/A time=00:10:17.19 bitrate=N/A speed=7.92x    frame=14898 fps=190 q=-0.0 size=N/A time=00:10:21.37 bitrate=N/A speed=7.92x    frame=14998 fps=190 q=-0.0 size=N/A time=00:10:25.54 bitrate=N/A speed=7.93x    frame=15095 fps=190 q=-0.0 size=N/A time=00:10:29.58 bitrate=N/A speed=7.93x    frame=15191 fps=190 q=-0.0 size=N/A time=00:10:33.59 bitrate=N/A speed=7.92x    frame=15289 fps=190 q=-0.0 size=N/A time=00:10:37.67 bitrate=N/A speed=7.92x    frame=15389 fps=190 q=-0.0 size=N/A time=00:10:41.84 bitrate=N/A speed=7.92x    frame=15484 fps=190 q=-0.0 size=N/A time=00:10:45.81 bitrate=N/A speed=7.92x    frame=15587 fps=190 q=-0.0 size=N/A time=00:10:50.10 bitrate=N/A speed=7.93x    frame=15684 fps=190 q=-0.0 size=N/A time=00:10:54.15 bitrate=N/A speed=7.93x    frame=15781 fps=190 q=-0.0 size=N/A time=00:10:58.19 bitrate=N/A speed=7.93x    frame=15884 fps=190 q=-0.0 size=N/A time=00:11:02.49 bitrate=N/A speed=7.93x    frame=15982 fps=190 q=-0.0 size=N/A time=00:11:06.58 bitrate=N/A speed=7.93x    frame=16079 fps=190 q=-0.0 size=N/A time=00:11:10.62 bitrate=N/A speed=7.93x    frame=16180 fps=190 q=-0.0 size=N/A time=00:11:14.84 bitrate=N/A speed=7.93x    frame=16277 fps=190 q=-0.0 size=N/A time=00:11:18.88 bitrate=N/A speed=7.93x    frame=16374 fps=190 q=-0.0 size=N/A time=00:11:22.93 bitrate=N/A speed=7.93x    frame=16464 fps=190 q=-0.0 size=N/A time=00:11:26.68 bitrate=N/A speed=7.92x    frame=16567 fps=190 q=-0.0 size=N/A time=00:11:30.98 bitrate=N/A speed=7.93x    frame=16665 fps=190 q=-0.0 size=N/A time=00:11:35.06 bitrate=N/A speed=7.93x    frame=16761 fps=190 q=-0.0 size=N/A time=00:11:39.07 bitrate=N/A speed=7.93x    frame=16861 fps=190 q=-0.0 size=N/A time=00:11:43.24 bitrate=N/A speed=7.93x    frame=16956 fps=190 q=-0.0 size=N/A time=00:11:47.20 bitrate=N/A speed=7.92x    frame=17046 fps=190 q=-0.0 size=N/A time=00:11:50.96 bitrate=N/A speed=7.92x    frame=17149 fps=190 q=-0.0 size=N/A time=00:11:55.25 bitrate=N/A speed=7.92x    frame=17246 fps=190 q=-0.0 size=N/A time=00:11:59.30 bitrate=N/A speed=7.92x    frame=17329 fps=190 q=-0.0 size=N/A time=00:12:02.76 bitrate=N/A speed=7.92x    frame=17432 fps=190 q=-0.0 size=N/A time=00:12:07.05 bitrate=N/A speed=7.92x    frame=17532 fps=190 q=-0.0 size=N/A time=00:12:11.23 bitrate=N/A speed=7.92x    frame=17629 fps=190 q=-0.0 size=N/A time=00:12:15.27 bitrate=N/A speed=7.92x    frame=17725 fps=190 q=-0.0 size=N/A time=00:12:19.28 bitrate=N/A speed=7.92x    frame=17819 fps=190 q=-0.0 size=N/A time=00:12:23.20 bitrate=N/A speed=7.92x    frame=17920 fps=190 q=-0.0 size=N/A time=00:12:27.41 bitrate=N/A speed=7.92x    frame=18015 fps=190 q=-0.0 size=N/A time=00:12:31.37 bitrate=N/A speed=7.92x    frame=18111 fps=190 q=-0.0 size=N/A time=00:12:35.37 bitrate=N/A speed=7.92x    frame=18203 fps=190 q=-0.0 size=N/A time=00:12:39.21 bitrate=N/A speed=7.91x    frame=18306 fps=190 q=-0.0 size=N/A time=00:12:43.51 bitrate=N/A speed=7.92x    frame=18403 fps=190 q=-0.0 size=N/A time=00:12:47.55 bitrate=N/A speed=7.91x    frame=18504 fps=190 q=-0.0 size=N/A time=00:12:51.77 bitrate=N/A speed=7.92x    frame=18604 fps=190 q=-0.0 size=N/A time=00:12:55.94 bitrate=N/A speed=7.92x    frame=18702 fps=190 q=-0.0 size=N/A time=00:13:00.02 bitrate=N/A speed=7.92x    frame=18802 fps=190 q=-0.0 size=N/A time=00:13:04.20 bitrate=N/A speed=7.92x    frame=18901 fps=190 q=-0.0 size=N/A time=00:13:08.32 bitrate=N/A speed=7.92x    frame=18994 fps=190 q=-0.0 size=N/A time=00:13:12.20 bitrate=N/A speed=7.92x    frame=19085 fps=190 q=-0.0 size=N/A time=00:13:16.00 bitrate=N/A speed=7.91x    frame=19186 fps=190 q=-0.0 size=N/A time=00:13:20.21 bitrate=N/A speed=7.91x    frame=19270 fps=190 q=-0.0 size=N/A time=00:13:23.71 bitrate=N/A speed=7.91x    frame=19376 fps=190 q=-0.0 size=N/A time=00:13:28.14 bitrate=N/A speed=7.91x    frame=19476 fps=190 q=-0.0 size=N/A time=00:13:32.31 bitrate=N/A speed=7.91x    frame=19571 fps=190 q=-0.0 size=N/A time=00:13:36.27 bitrate=N/A speed=7.91x    frame=19673 fps=190 q=-0.0 size=N/A time=00:13:40.52 bitrate=N/A speed=7.91x    frame=19768 fps=190 q=-0.0 size=N/A time=00:13:44.49 bitrate=N/A speed=7.91x    frame=19867 fps=190 q=-0.0 size=N/A time=00:13:48.61 bitrate=N/A speed=7.91x    frame=19958 fps=190 q=-0.0 size=N/A time=00:13:52.41 bitrate=N/A speed=7.91x    frame=20045 fps=190 q=-0.0 size=N/A time=00:13:56.04 bitrate=N/A speed=7.91x    frame=20153 fps=190 q=-0.0 size=N/A time=00:14:00.54 bitrate=N/A speed=7.91x    frame=20255 fps=190 q=-0.0 size=N/A time=00:14:04.80 bitrate=N/A speed=7.91x    frame=20351 fps=190 q=-0.0 size=N/A time=00:14:08.80 bitrate=N/A speed=7.91x    frame=20456 fps=190 q=-0.0 size=N/A time=00:14:13.18 bitrate=N/A speed=7.91x    frame=20557 fps=190 q=-0.0 size=N/A time=00:14:17.39 bitrate=N/A speed=7.91x    frame=20651 fps=190 q=-0.0 size=N/A time=00:14:21.31 bitrate=N/A speed=7.91x    frame=20756 fps=190 q=-0.0 size=N/A time=00:14:25.69 bitrate=N/A speed=7.91x    frame=20852 fps=190 q=-0.0 size=N/A time=00:14:29.70 bitrate=N/A speed=7.91x    frame=20948 fps=190 q=-0.0 size=N/A time=00:14:33.70 bitrate=N/A speed=7.91x    frame=21047 fps=190 q=-0.0 size=N/A time=00:14:37.83 bitrate=N/A speed=7.91x    frame=21146 fps=190 q=-0.0 size=N/A time=00:14:41.96 bitrate=N/A speed=7.91x    frame=21244 fps=190 q=-0.0 size=N/A time=00:14:46.05 bitrate=N/A speed=7.91x    frame=21340 fps=190 q=-0.0 size=N/A time=00:14:50.05 bitrate=N/A speed=7.91x    frame=21442 fps=190 q=-0.0 size=N/A time=00:14:54.31 bitrate=N/A speed=7.91x    frame=21541 fps=190 q=-0.0 size=N/A time=00:14:58.43 bitrate=N/A speed=7.92x    frame=21642 fps=190 q=-0.0 size=N/A time=00:15:02.65 bitrate=N/A speed=7.92x    frame=21733 fps=190 q=-0.0 size=N/A time=00:15:06.44 bitrate=N/A speed=7.91x    frame=21840 fps=190 q=-0.0 size=N/A time=00:15:10.91 bitrate=N/A speed=7.92x    frame=21938 fps=190 q=-0.0 size=N/A time=00:15:14.99 bitrate=N/A speed=7.92x    frame=22033 fps=190 q=-0.0 size=N/A time=00:15:18.95 bitrate=N/A speed=7.92x    frame=22134 fps=190 q=-0.0 size=N/A time=00:15:23.17 bitrate=N/A speed=7.92x    frame=22227 fps=190 q=-0.0 size=N/A time=00:15:27.05 bitrate=N/A speed=7.92x    frame=22323 fps=190 q=-0.0 size=N/A time=00:15:31.05 bitrate=N/A speed=7.92x    frame=22422 fps=190 q=-0.0 size=N/A time=00:15:35.18 bitrate=N/A speed=7.92x    frame=22521 fps=190 q=-0.0 size=N/A time=00:15:39.31 bitrate=N/A speed=7.92x    frame=22614 fps=190 q=-0.0 size=N/A time=00:15:43.19 bitrate=N/A speed=7.91x    frame=22720 fps=190 q=-0.0 size=N/A time=00:15:47.61 bitrate=N/A speed=7.92x    frame=22817 fps=190 q=-0.0 size=N/A time=00:15:51.65 bitrate=N/A speed=7.92x    frame=22911 fps=190 q=-0.0 size=N/A time=00:15:55.57 bitrate=N/A speed=7.92x    frame=23008 fps=190 q=-0.0 size=N/A time=00:15:59.62 bitrate=N/A speed=7.91x    frame=23107 fps=190 q=-0.0 size=N/A time=00:16:03.75 bitrate=N/A speed=7.92x    frame=23204 fps=190 q=-0.0 size=N/A time=00:16:07.80 bitrate=N/A speed=7.91x    frame=23306 fps=190 q=-0.0 size=N/A time=00:16:12.05 bitrate=N/A speed=7.92x    frame=23400 fps=190 q=-0.0 size=N/A time=00:16:15.97 bitrate=N/A speed=7.92x    frame=23493 fps=190 q=-0.0 size=N/A time=00:16:19.85 bitrate=N/A speed=7.91x    frame=23586 fps=190 q=-0.0 size=N/A time=00:16:23.73 bitrate=N/A speed=7.91x    frame=23687 fps=190 q=-0.0 size=N/A time=00:16:27.94 bitrate=N/A speed=7.91x    frame=23787 fps=190 q=-0.0 size=N/A time=00:16:32.11 bitrate=N/A speed=7.91x    frame=23885 fps=190 q=-0.0 size=N/A time=00:16:36.20 bitrate=N/A speed=7.91x    frame=23985 fps=190 q=-0.0 size=N/A time=00:16:40.37 bitrate=N/A speed=7.91x    frame=24085 fps=190 q=-0.0 size=N/A time=00:16:44.54 bitrate=N/A speed=7.91x    frame=24169 fps=190 q=-0.0 size=N/A time=00:16:48.04 bitrate=N/A speed=7.91x    frame=24280 fps=190 q=-0.0 size=N/A time=00:16:52.67 bitrate=N/A speed=7.92x    frame=24380 fps=190 q=-0.0 size=N/A time=00:16:56.84 bitrate=N/A speed=7.92x    frame=24474 fps=190 q=-0.0 size=N/A time=00:17:00.76 bitrate=N/A speed=7.91x    frame=24574 fps=190 q=-0.0 size=N/A time=00:17:04.94 bitrate=N/A speed=7.92x    frame=24664 fps=190 q=-0.0 size=N/A time=00:17:08.69 bitrate=N/A speed=7.91x    frame=24770 fps=190 q=-0.0 size=N/A time=00:17:13.11 bitrate=N/A speed=7.91x    frame=24865 fps=190 q=-0.0 size=N/A time=00:17:17.07 bitrate=N/A speed=7.91x    frame=24965 fps=190 q=-0.0 size=N/A time=00:17:21.24 bitrate=N/A speed=7.91x    frame=25060 fps=190 q=-0.0 size=N/A time=00:17:25.21 bitrate=N/A speed=7.91x    frame=25159 fps=190 q=-0.0 size=N/A time=00:17:29.33 bitrate=N/A speed=7.91x    frame=25256 fps=190 q=-0.0 size=N/A time=00:17:33.38 bitrate=N/A speed=7.91x    frame=25349 fps=190 q=-0.0 size=N/A time=00:17:37.26 bitrate=N/A speed=7.91x    frame=25444 fps=190 q=-0.0 size=N/A time=00:17:41.22 bitrate=N/A speed=7.91x    frame=25550 fps=190 q=-0.0 size=N/A time=00:17:45.64 bitrate=N/A speed=7.91x    frame=25648 fps=190 q=-0.0 size=N/A time=00:17:49.73 bitrate=N/A speed=7.91x    frame=25749 fps=190 q=-0.0 size=N/A time=00:17:53.94 bitrate=N/A speed=7.92x    frame=25840 fps=190 q=-0.0 size=N/A time=00:17:57.74 bitrate=N/A speed=7.91x    frame=25946 fps=190 q=-0.0 size=N/A time=00:18:02.16 bitrate=N/A speed=7.92x    frame=26045 fps=190 q=-0.0 size=N/A time=00:18:06.29 bitrate=N/A speed=7.92x    frame=26141 fps=190 q=-0.0 size=N/A time=00:18:10.29 bitrate=N/A speed=7.92x    frame=26244 fps=190 q=-0.0 size=N/A time=00:18:14.59 bitrate=N/A speed=7.92x    frame=26343 fps=190 q=-0.0 size=N/A time=00:18:18.72 bitrate=N/A speed=7.92x    frame=26444 fps=190 q=-0.0 size=N/A time=00:18:22.93 bitrate=N/A speed=7.92x    frame=26540 fps=190 q=-0.0 size=N/A time=00:18:26.93 bitrate=N/A speed=7.92x    frame=26638 fps=190 q=-0.0 size=N/A time=00:18:31.02 bitrate=N/A speed=7.92x    frame=26728 fps=190 q=-0.0 size=N/A time=00:18:34.78 bitrate=N/A speed=7.92x    frame=26830 fps=190 q=-0.0 size=N/A time=00:18:39.03 bitrate=N/A speed=7.92x    frame=26929 fps=190 q=-0.0 size=N/A time=00:18:43.16 bitrate=N/A speed=7.92x    frame=27022 fps=190 q=-0.0 size=N/A time=00:18:47.04 bitrate=N/A speed=7.92x    frame=27128 fps=190 q=-0.0 size=N/A time=00:18:51.46 bitrate=N/A speed=7.92x    frame=27225 fps=190 q=-0.0 size=N/A time=00:18:55.50 bitrate=N/A speed=7.92x    frame=27324 fps=190 q=-0.0 size=N/A time=00:18:59.63 bitrate=N/A speed=7.92x    frame=27423 fps=190 q=-0.0 size=N/A time=00:19:03.76 bitrate=N/A speed=7.92x    frame=27517 fps=190 q=-0.0 size=N/A time=00:19:07.68 bitrate=N/A speed=7.92x    frame=27616 fps=190 q=-0.0 size=N/A time=00:19:11.81 bitrate=N/A speed=7.92x    frame=27710 fps=190 q=-0.0 size=N/A time=00:19:15.73 bitrate=N/A speed=7.92x    frame=27813 fps=190 q=-0.0 size=N/A time=00:19:20.03 bitrate=N/A speed=7.92x    frame=27910 fps=190 q=-0.0 size=N/A time=00:19:24.07 bitrate=N/A speed=7.92x    frame=28001 fps=190 q=-0.0 size=N/A time=00:19:27.87 bitrate=N/A speed=7.92x    frame=28105 fps=190 q=-0.0 size=N/A time=00:19:32.21 bitrate=N/A speed=7.92x    frame=28206 fps=190 q=-0.0 size=N/A time=00:19:36.42 bitrate=N/A speed=7.92x    frame=28300 fps=190 q=-0.0 size=N/A time=00:19:40.34 bitrate=N/A speed=7.92x    frame=28400 fps=190 q=-0.0 size=N/A time=00:19:44.51 bitrate=N/A speed=7.92x    frame=28499 fps=190 q=-0.0 size=N/A time=00:19:48.64 bitrate=N/A speed=7.92x    frame=28599 fps=190 q=-0.0 size=N/A time=00:19:52.81 bitrate=N/A speed=7.92x    frame=28698 fps=190 q=-0.0 size=N/A time=00:19:56.94 bitrate=N/A speed=7.92x    frame=28796 fps=190 q=-0.0 size=N/A time=00:20:01.03 bitrate=N/A speed=7.92x    frame=28891 fps=190 q=-0.0 size=N/A time=00:20:04.99 bitrate=N/A speed=7.92x    frame=28988 fps=190 q=-0.0 size=N/A time=00:20:09.04 bitrate=N/A speed=7.92x    frame=29079 fps=190 q=-0.0 size=N/A time=00:20:12.83 bitrate=N/A speed=7.92x    frame=29178 fps=190 q=-0.0 size=N/A time=00:20:16.96 bitrate=N/A speed=7.92x    frame=29268 fps=190 q=-0.0 size=N/A time=00:20:20.71 bitrate=N/A speed=7.91x    frame=29371 fps=190 q=-0.0 size=N/A time=00:20:25.01 bitrate=N/A speed=7.92x    frame=29464 fps=190 q=-0.0 size=N/A time=00:20:28.89 bitrate=N/A speed=7.91x    frame=29559 fps=190 q=-0.0 size=N/A time=00:20:32.85 bitrate=N/A speed=7.91x    frame=29651 fps=190 q=-0.0 size=N/A time=00:20:36.69 bitrate=N/A speed=7.91x    frame=29752 fps=190 q=-0.0 size=N/A time=00:20:40.90 bitrate=N/A speed=7.91x    frame=29852 fps=190 q=-0.0 size=N/A time=00:20:45.07 bitrate=N/A speed=7.91x    frame=29942 fps=190 q=-0.0 size=N/A time=00:20:48.83 bitrate=N/A speed=7.91x    frame=30046 fps=190 q=-0.0 size=N/A time=00:20:53.16 bitrate=N/A speed=7.91x    frame=30141 fps=190 q=-0.0 size=N/A time=00:20:57.13 bitrate=N/A speed=7.91x    frame=30238 fps=190 q=-0.0 size=N/A time=00:21:01.17 bitrate=N/A speed=7.91x    frame=30333 fps=190 q=-0.0 size=N/A time=00:21:05.13 bitrate=N/A speed=7.91x    frame=30432 fps=190 q=-0.0 size=N/A time=00:21:09.26 bitrate=N/A speed=7.91x    frame=30531 fps=190 q=-0.0 size=N/A time=00:21:13.39 bitrate=N/A speed=7.91x    frame=30628 fps=190 q=-0.0 size=N/A time=00:21:17.44 bitrate=N/A speed=7.91x    frame=30725 fps=190 q=-0.0 size=N/A time=00:21:21.48 bitrate=N/A speed=7.91x    frame=30824 fps=190 q=-0.0 size=N/A time=00:21:25.61 bitrate=N/A speed=7.91x    frame=30924 fps=190 q=-0.0 size=N/A time=00:21:29.78 bitrate=N/A speed=7.91x    frame=31014 fps=190 q=-0.0 size=N/A time=00:21:33.54 bitrate=N/A speed=7.91x    frame=31117 fps=190 q=-0.0 size=N/A time=00:21:37.83 bitrate=N/A speed=7.91x    frame=31211 fps=190 q=-0.0 size=N/A time=00:21:41.75 bitrate=N/A speed=7.91x    frame=31310 fps=190 q=-0.0 size=N/A time=00:21:45.88 bitrate=N/A speed=7.91x    frame=31406 fps=190 q=-0.0 size=N/A time=00:21:49.89 bitrate=N/A speed=7.91x    frame=31503 fps=190 q=-0.0 size=N/A time=00:21:53.93 bitrate=N/A speed=7.91x    frame=31597 fps=190 q=-0.0 size=N/A time=00:21:57.85 bitrate=N/A speed=7.91x    frame=31691 fps=190 q=-0.0 size=N/A time=00:22:01.77 bitrate=N/A speed=7.91x    frame=31783 fps=190 q=-0.0 size=N/A time=00:22:05.61 bitrate=N/A speed=7.91x    frame=31872 fps=190 q=-0.0 size=N/A time=00:22:09.32 bitrate=N/A speed=7.91x    frame=31960 fps=189 q=-0.0 size=N/A time=00:22:12.99 bitrate=N/A speed= 7.9x    frame=32049 fps=189 q=-0.0 size=N/A time=00:22:16.71 bitrate=N/A speed= 7.9x    frame=32150 fps=189 q=-0.0 size=N/A time=00:22:20.92 bitrate=N/A speed= 7.9x    frame=32238 fps=189 q=-0.0 size=N/A time=00:22:24.59 bitrate=N/A speed= 7.9x    frame=32323 fps=189 q=-0.0 size=N/A time=00:22:28.13 bitrate=N/A speed= 7.9x    frame=32411 fps=189 q=-0.0 size=N/A time=00:22:31.80 bitrate=N/A speed=7.89x    frame=32502 fps=189 q=-0.0 size=N/A time=00:22:35.60 bitrate=N/A speed=7.89x    frame=32590 fps=189 q=-0.0 size=N/A time=00:22:39.27 bitrate=N/A speed=7.89x    frame=32679 fps=189 q=-0.0 size=N/A time=00:22:42.98 bitrate=N/A speed=7.89x    frame=32779 fps=189 q=-0.0 size=N/A time=00:22:47.15 bitrate=N/A speed=7.89x    frame=32867 fps=189 q=-0.0 size=N/A time=00:22:50.82 bitrate=N/A speed=7.89x    frame=32960 fps=189 q=-0.0 size=N/A time=00:22:54.70 bitrate=N/A speed=7.88x    frame=33052 fps=189 q=-0.0 size=N/A time=00:22:58.54 bitrate=N/A speed=7.88x    frame=33151 fps=189 q=-0.0 size=N/A time=00:23:02.67 bitrate=N/A speed=7.88x    frame=33244 fps=189 q=-0.0 size=N/A time=00:23:06.55 bitrate=N/A speed=7.88x    frame=33339 fps=189 q=-0.0 size=N/A time=00:23:10.51 bitrate=N/A speed=7.88x    frame=33435 fps=189 q=-0.0 size=N/A time=00:23:14.51 bitrate=N/A speed=7.88x    frame=33523 fps=189 q=-0.0 size=N/A time=00:23:18.18 bitrate=N/A speed=7.88x    frame=33621 fps=189 q=-0.0 size=N/A time=00:23:22.27 bitrate=N/A speed=7.88x    frame=33714 fps=189 q=-0.0 size=N/A time=00:23:26.15 bitrate=N/A speed=7.88x    frame=33809 fps=189 q=-0.0 size=N/A time=00:23:30.11 bitrate=N/A speed=7.88x    frame=33897 fps=189 q=-0.0 size=N/A time=00:23:33.78 bitrate=N/A speed=7.88x    frame=34010 fps=189 q=-0.0 size=N/A time=00:23:38.50 bitrate=N/A speed=7.88x    [Parsed_ssim_10 @ 000001a0b1b1fdc0] SSIM Y:0.990903 (20.411181) U:0.992194 (21.075831) V:0.992963 (21.525996) All:0.991462 (20.686300)
[out#0/null @ 000001a0b223a900] video:14629KiB audio:266440KiB subtitle:0KiB other streams:0KiB global headers:0KiB muxing overhead: unknown
frame=34045 fps=189 q=-0.0 Lsize=N/A time=00:23:39.96 bitrate=N/A speed=7.88x    
